<?xml version="1.0" encoding="UTF-8"?>
<svg version="1.1" xmlns="http://www.w3.org/2000/svg" width="640" height="445">
<path d="M0 0 C211.2 0 422.4 0 640 0 C640 146.85 640 293.7 640 445 C428.8 445 217.6 445 0 445 C0 298.15 0 151.3 0 0 Z " fill="#3E3838" transform="translate(0,0)"/>
<path d="M0 0 C149.82 0 299.64 0 454 0 C454.33 6.93 454.66 13.86 455 21 C459.17635843 29.35271686 462.20622738 33.25596449 470 38 C472.85506049 38.95168683 474.90937282 39.1900946 477.88671875 39.31640625 C479.2934082 39.37924805 479.2934082 39.37924805 480.72851562 39.44335938 C482.19321289 39.50233398 482.19321289 39.50233398 483.6875 39.5625 C485.16959961 39.62727539 485.16959961 39.62727539 486.68164062 39.69335938 C489.12092972 39.79941542 491.56044654 39.90020974 494 40 C494 44.62 494 49.24 494 54 C491.49348958 54.16276042 488.98697917 54.32552083 486.48046875 54.48828125 C483.65800512 55.07055327 482.65204113 55.66053235 481 58 C481.22330713 61.64734979 481.38372835 63.38372835 484 66 C486.43252661 66.46162427 486.43252661 66.46162427 489.125 66.625 C491.538125 66.810625 491.538125 66.810625 494 67 C494 71.29 494 75.58 494 80 C491.49348958 80.16276042 488.98697917 80.32552083 486.48046875 80.48828125 C483.6476015 81.07269953 482.63933903 81.63451079 481 84 C481.19137484 89.04565002 481.19137484 89.04565002 484 93 C486.43252661 93.46162427 486.43252661 93.46162427 489.125 93.625 C491.538125 93.810625 491.538125 93.810625 494 94 C494 98.29 494 102.58 494 107 C491.49348958 107.16276042 488.98697917 107.32552083 486.48046875 107.48828125 C483.64622762 108.07298296 482.637804 108.63122978 481 111 C481.07578955 114.61462786 481.07578955 114.61462786 482 118 C484.43387753 119.21693876 486.41838846 119.31959896 489.125 119.5625 C490.73375 119.706875 492.3425 119.85125 494 120 C494 124.62 494 129.24 494 134 C491.49348958 134.16276042 488.98697917 134.32552083 486.48046875 134.48828125 C483.65800512 135.07055327 482.65204113 135.66053235 481 138 C481.22330713 141.64734979 481.38372835 143.38372835 484 146 C486.43252661 146.46162427 486.43252661 146.46162427 489.125 146.625 C491.538125 146.810625 491.538125 146.810625 494 147 C494 151.29 494 155.58 494 160 C491.49348958 160.16276042 488.98697917 160.32552083 486.48046875 160.48828125 C483.6476015 161.07269953 482.63933903 161.63451079 481 164 C481.19137484 169.04565002 481.19137484 169.04565002 484 173 C486.43252661 173.46162427 486.43252661 173.46162427 489.125 173.625 C491.538125 173.810625 491.538125 173.810625 494 174 C494 178.29 494 182.58 494 187 C491.49348958 187.16276042 488.98697917 187.32552083 486.48046875 187.48828125 C483.64622762 188.07298296 482.637804 188.63122978 481 191 C481.07578955 194.61462786 481.07578955 194.61462786 482 198 C484.43387753 199.21693876 486.41838846 199.31959896 489.125 199.5625 C490.73375 199.706875 492.3425 199.85125 494 200 C494 204.62 494 209.24 494 214 C491.49348958 214.16276042 488.98697917 214.32552083 486.48046875 214.48828125 C483.65800512 215.07055327 482.65204113 215.66053235 481 218 C481.22330713 221.64734979 481.38372835 223.38372835 484 226 C486.43252661 226.46162427 486.43252661 226.46162427 489.125 226.625 C491.538125 226.810625 491.538125 226.810625 494 227 C494 231.29 494 235.58 494 240 C492.73285156 240.02578125 491.46570313 240.0515625 490.16015625 240.078125 C477.46370702 240.17179349 477.46370702 240.17179349 466 245 C465.35933594 245.43441406 464.71867187 245.86882812 464.05859375 246.31640625 C459.03219027 250.16753376 458.18964041 252.62071918 455 259 C454.67 265.93 454.34 272.86 454 280 C304.18 280 154.36 280 0 280 C-0.33 273.4 -0.66 266.8 -1 260 C-3.53394349 253.12215337 -5.78320005 249.06483074 -12 245 C-12.56589844 244.62101563 -13.13179687 244.24203125 -13.71484375 243.8515625 C-21.59751586 239.44975352 -31.21747297 240.17868824 -40 240 C-40 235.71 -40 231.42 -40 227 C-37.49348958 226.86979167 -34.98697917 226.73958333 -32.48046875 226.609375 C-29.87156276 226.20022232 -29.87156276 226.20022232 -28.1640625 224.1171875 C-26.75998786 222.01730841 -26.75998786 222.01730841 -27.1875 219.375 C-27.85676551 216.84979635 -27.85676551 216.84979635 -30 215 C-32.43252661 214.53837573 -32.43252661 214.53837573 -35.125 214.375 C-37.538125 214.189375 -37.538125 214.189375 -40 214 C-40 209.38 -40 204.76 -40 200 C-36.04 199.67 -32.08 199.34 -28 199 C-27.95875 197.55625 -27.9175 196.1125 -27.875 194.625 C-27.85179688 193.81289063 -27.82859375 193.00078125 -27.8046875 192.1640625 C-27.78629949 189.78657757 -27.78629949 189.78657757 -30 188 C-32.43252661 187.53837573 -32.43252661 187.53837573 -35.125 187.375 C-37.538125 187.189375 -37.538125 187.189375 -40 187 C-40 182.71 -40 178.42 -40 174 C-37.339375 173.5978125 -37.339375 173.5978125 -34.625 173.1875 C-31.64691668 172.80092254 -31.64691668 172.80092254 -29 172 C-26.69212888 169.17537932 -26.69212888 169.17537932 -27.125 165.9375 C-27.70593681 163.00262179 -27.70593681 163.00262179 -29.5625 161.6875 C-33.02512846 160.7108612 -36.41923471 160.35807653 -40 160 C-40 155.71 -40 151.42 -40 147 C-37.49348958 146.86979167 -34.98697917 146.73958333 -32.48046875 146.609375 C-29.87156276 146.20022232 -29.87156276 146.20022232 -28.1640625 144.1171875 C-26.75998786 142.01730841 -26.75998786 142.01730841 -27.1875 139.375 C-27.85676551 136.84979635 -27.85676551 136.84979635 -30 135 C-32.43252661 134.53837573 -32.43252661 134.53837573 -35.125 134.375 C-37.538125 134.189375 -37.538125 134.189375 -40 134 C-40 129.38 -40 124.76 -40 120 C-34.06 119.505 -34.06 119.505 -28 119 C-27.95875 117.55625 -27.9175 116.1125 -27.875 114.625 C-27.85179688 113.81289062 -27.82859375 113.00078125 -27.8046875 112.1640625 C-27.78629949 109.78657757 -27.78629949 109.78657757 -30 108 C-32.43252661 107.53837573 -32.43252661 107.53837573 -35.125 107.375 C-37.538125 107.189375 -37.538125 107.189375 -40 107 C-40 102.71 -40 98.42 -40 94 C-37.339375 93.5978125 -37.339375 93.5978125 -34.625 93.1875 C-31.64691668 92.80092254 -31.64691668 92.80092254 -29 92 C-26.69212888 89.17537932 -26.69212888 89.17537932 -27.125 85.9375 C-27.70593681 83.00262179 -27.70593681 83.00262179 -29.5625 81.6875 C-33.02512846 80.7108612 -36.41923471 80.35807653 -40 80 C-40 75.71 -40 71.42 -40 67 C-36.24023438 66.8046875 -36.24023438 66.8046875 -32.48046875 66.609375 C-29.87156276 66.20022232 -29.87156276 66.20022232 -28.1640625 64.1171875 C-26.75998786 62.01730841 -26.75998786 62.01730841 -27.1875 59.375 C-27.85676551 56.84979635 -27.85676551 56.84979635 -30 55 C-32.43252661 54.53837573 -32.43252661 54.53837573 -35.125 54.375 C-37.538125 54.189375 -37.538125 54.189375 -40 54 C-40 49.38 -40 44.76 -40 40 C-38.66066406 39.97421875 -37.32132813 39.9484375 -35.94140625 39.921875 C-34.14840686 39.86555041 -32.35543936 39.8082041 -30.5625 39.75 C-29.24475586 39.72873047 -29.24475586 39.72873047 -27.90039062 39.70703125 C-20.36725708 39.42905584 -14.25153234 37.77497188 -8.44140625 32.81640625 C-7.82136719 32.07261719 -7.20132813 31.32882813 -6.5625 30.5625 C-5.60537109 29.45068359 -5.60537109 29.45068359 -4.62890625 28.31640625 C1.61366707 19.43907777 -0.56817739 11.93172515 0 0 Z " fill="#F8D4C1" transform="translate(93,79)"/>
<path d="M0 0 C211.2 0 422.4 0 640 0 C640 146.85 640 293.7 640 445 C428.8 445 217.6 445 0 445 C0 298.15 0 151.3 0 0 Z M58 46 C51.71454934 53.80676993 46.86017008 61.89300159 46 72 C44.4221875 72.0309375 44.4221875 72.0309375 42.8125 72.0625 C32.6769642 73.32493329 22.47584444 80.42666706 16.16796875 88.28125 C8.58152831 98.6307519 4.68236562 109.07657341 4.73257446 121.91616821 C4.72804335 122.77883879 4.72351224 123.64150937 4.71884382 124.53032148 C4.70624829 127.40259399 4.70781706 130.2746757 4.70947266 133.14697266 C4.70348427 135.21408327 4.69667801 137.28119166 4.68911743 139.34829712 C4.67147916 144.95190248 4.66676289 150.55544673 4.66548586 156.15907717 C4.66406217 159.66487923 4.65978837 163.17066586 4.65449142 166.67646408 C4.63599645 178.92120089 4.62781991 191.16589422 4.62939453 203.41064453 C4.63059492 214.80089473 4.60951131 226.19095513 4.5779072 237.58115733 C4.5516975 247.37849298 4.54102925 257.17576684 4.54230535 266.97313726 C4.54281372 272.81641464 4.53720027 278.65952338 4.51594925 284.50276566 C4.49648845 290.0038603 4.49649591 295.50462681 4.51098251 301.00573349 C4.51306218 303.01556125 4.50842042 305.02540997 4.4962616 307.03520203 C4.39537873 324.87794217 6.47618572 340.21020744 19.25 353.75 C26.31891494 360.46309707 35.88329608 367 46 367 C46.20625 368.2375 46.4125 369.475 46.625 370.75 C49.6925976 384.13397036 57.53963186 394.14386496 69.0625 401.4375 C76.13587673 405.60196609 83.33002804 407.4551556 91.47933769 407.38031673 C92.28671586 407.38497665 93.09409402 407.38963657 93.92593819 407.3944377 C96.61850822 407.40634334 99.31056949 407.39700952 102.00314331 407.38768005 C103.95822967 407.39185491 105.91331361 407.39733326 107.86839306 407.40399987 C113.23121654 407.41845324 118.59388632 407.41421003 123.95671821 407.40683305 C129.74416023 407.40210344 135.5315689 407.41460942 141.31900024 407.42485046 C152.65336127 407.44204786 163.98766688 407.44287651 175.32203756 407.43763756 C184.53464499 407.43359636 193.74723604 407.43503883 202.95984268 407.44038582 C204.27096855 407.44113424 205.58209441 407.44188266 206.93295137 407.44265376 C208.92873799 407.4438013 210.92452461 407.44494886 212.92031123 407.44611301 C231.47188407 407.4568158 250.02345086 407.46154553 268.57502556 407.45364285 C269.27412978 407.45334567 269.97323399 407.4530485 270.69352318 407.45274232 C276.37048865 407.45029346 282.04745405 407.44768184 287.72441944 407.44505819 C309.86627588 407.43495655 332.00805648 407.44331047 354.14990234 407.46655273 C379.036425 407.49263392 403.922902 407.50547096 428.80943882 407.49836498 C441.98271293 407.49487111 455.15592477 407.49711599 468.3291893 407.51461601 C479.54335716 407.5293287 490.7574189 407.52998556 501.97158466 407.5125451 C507.69242919 407.50402511 513.41308406 407.50191015 519.13391876 407.51719666 C524.37342366 407.53102362 529.61257605 407.52630591 534.85206045 407.50695742 C536.74497493 407.50319103 538.63791752 407.50613776 540.530807 407.51656907 C557.31915717 407.60248932 569.12940654 404.42243777 581.75 392.6875 C588.14123677 385.96464245 594 376.44658291 594 367 C594.639375 366.896875 595.27875 366.79375 595.9375 366.6875 C609.52314952 363.63766031 620.50913714 356.15609868 628.1875 344.4375 C635.35465775 331.40840333 635.58174223 318.61359327 635.51757812 304.15600586 C635.52300869 302.08638519 635.53013655 300.0167684 635.53881836 297.94715881 C635.55694233 292.36455065 635.55002982 286.78224054 635.53730202 281.19962764 C635.52711882 275.33608541 635.53658227 269.47256736 635.54284668 263.60902405 C635.55010707 253.7665655 635.54057704 243.92422734 635.52148438 234.08178711 C635.49971278 222.72772737 635.50677573 211.37395497 635.52879 200.01990217 C635.54698264 190.2428273 635.54948362 180.46583857 635.53903532 170.68875223 C635.53282241 164.86182453 635.53190404 159.03503158 635.54518127 153.20811272 C635.5567957 147.72907216 635.54861224 142.25039964 635.52560425 136.77139854 C635.5203472 134.76921955 635.52177896 132.76700921 635.53065491 130.76484299 C635.60237824 112.93249797 633.06481782 97.3617455 620 84 C612.76278121 78.03364218 603.62413583 72 594 72 C593.92523437 71.40574219 593.85046875 70.81148437 593.7734375 70.19921875 C591.82139198 57.89367691 585.29780283 47.7616232 575.375 40.375 C565.50630308 33.75611566 555.84343975 30.83982448 544.03036213 30.86857224 C543.24164086 30.8665196 542.45291959 30.86446697 541.64029768 30.86235213 C538.99328107 30.85669068 536.34631664 30.85813833 533.69929504 30.85955811 C531.78392355 30.85697398 529.8685526 30.85396069 527.9531824 30.8505547 C522.68624073 30.84248705 517.41931268 30.84069526 512.15236557 30.83995724 C506.47326725 30.83810629 500.79417601 30.83055877 495.11508179 30.82382202 C482.69567406 30.81024012 470.27626955 30.80421428 457.85685563 30.79981136 C450.10271209 30.79704886 442.3485698 30.7928115 434.59442711 30.78830719 C413.12686244 30.77611501 391.65929939 30.76578003 370.19173145 30.7624321 C368.80389173 30.76221047 367.41605201 30.76198868 366.02821229 30.76176675 C364.63704849 30.76154611 363.24588469 30.76132562 361.85472089 30.7611053 C359.06387317 30.76066275 356.27302545 30.76021563 353.48217773 30.75976562 C352.79021155 30.75965623 352.09824536 30.75954684 351.38531051 30.75943414 C328.9489401 30.75580361 306.512602 30.73988301 284.07624396 30.71657526 C260.34791834 30.69197049 236.61961492 30.67826569 212.89127558 30.67706418 C199.95941346 30.6761473 187.02759365 30.67039159 174.09574318 30.65224457 C163.08464091 30.63684736 152.07359404 30.63172093 141.06248305 30.63998267 C135.4449727 30.64389041 129.82757392 30.64295339 124.21007729 30.62892532 C119.06488332 30.61619423 113.91988485 30.6173771 108.77469119 30.62951604 C106.91600423 30.63147438 105.05730346 30.62838827 103.19863591 30.61967167 C86.31716742 30.54553187 70.13155652 32.87453282 58 46 Z " fill="#000000" transform="translate(0,0)"/>
<path d="M0 0 C149.82 0 299.64 0 454 0 C454.33 6.93 454.66 13.86 455 21 C459.17635843 29.35271686 462.20622738 33.25596449 470 38 C472.85506049 38.95168683 474.90937282 39.1900946 477.88671875 39.31640625 C479.2934082 39.37924805 479.2934082 39.37924805 480.72851562 39.44335938 C482.19321289 39.50233398 482.19321289 39.50233398 483.6875 39.5625 C485.16959961 39.62727539 485.16959961 39.62727539 486.68164062 39.69335938 C489.12092972 39.79941542 491.56044654 39.90020974 494 40 C494 44.62 494 49.24 494 54 C491.49348958 54.16276042 488.98697917 54.32552083 486.48046875 54.48828125 C483.65800512 55.07055327 482.65204113 55.66053235 481 58 C481.22330713 61.64734979 481.38372835 63.38372835 484 66 C486.43252661 66.46162427 486.43252661 66.46162427 489.125 66.625 C491.538125 66.810625 491.538125 66.810625 494 67 C494 71.29 494 75.58 494 80 C491.49348958 80.16276042 488.98697917 80.32552083 486.48046875 80.48828125 C483.6476015 81.07269953 482.63933903 81.63451079 481 84 C481.19137484 89.04565002 481.19137484 89.04565002 484 93 C486.43252661 93.46162427 486.43252661 93.46162427 489.125 93.625 C491.538125 93.810625 491.538125 93.810625 494 94 C494 98.29 494 102.58 494 107 C491.49348958 107.16276042 488.98697917 107.32552083 486.48046875 107.48828125 C483.64622762 108.07298296 482.637804 108.63122978 481 111 C481.07578955 114.61462786 481.07578955 114.61462786 482 118 C484.43387753 119.21693876 486.41838846 119.31959896 489.125 119.5625 C490.73375 119.706875 492.3425 119.85125 494 120 C494 124.62 494 129.24 494 134 C491.49348958 134.16276042 488.98697917 134.32552083 486.48046875 134.48828125 C483.65800512 135.07055327 482.65204113 135.66053235 481 138 C481.22330713 141.64734979 481.38372835 143.38372835 484 146 C486.43252661 146.46162427 486.43252661 146.46162427 489.125 146.625 C491.538125 146.810625 491.538125 146.810625 494 147 C494 151.29 494 155.58 494 160 C491.49348958 160.16276042 488.98697917 160.32552083 486.48046875 160.48828125 C483.6476015 161.07269953 482.63933903 161.63451079 481 164 C481.19137484 169.04565002 481.19137484 169.04565002 484 173 C486.43252661 173.46162427 486.43252661 173.46162427 489.125 173.625 C491.538125 173.810625 491.538125 173.810625 494 174 C494 178.29 494 182.58 494 187 C491.49348958 187.16276042 488.98697917 187.32552083 486.48046875 187.48828125 C483.64622762 188.07298296 482.637804 188.63122978 481 191 C481.07578955 194.61462786 481.07578955 194.61462786 482 198 C484.43387753 199.21693876 486.41838846 199.31959896 489.125 199.5625 C490.73375 199.706875 492.3425 199.85125 494 200 C494 204.62 494 209.24 494 214 C491.49348958 214.16276042 488.98697917 214.32552083 486.48046875 214.48828125 C483.65800512 215.07055327 482.65204113 215.66053235 481 218 C481.22330713 221.64734979 481.38372835 223.38372835 484 226 C486.43252661 226.46162427 486.43252661 226.46162427 489.125 226.625 C491.538125 226.810625 491.538125 226.810625 494 227 C494 231.29 494 235.58 494 240 C492.73285156 240.02578125 491.46570313 240.0515625 490.16015625 240.078125 C477.46370702 240.17179349 477.46370702 240.17179349 466 245 C465.35933594 245.43441406 464.71867187 245.86882812 464.05859375 246.31640625 C459.03219027 250.16753376 458.18964041 252.62071918 455 259 C454.67 265.93 454.34 272.86 454 280 C304.18 280 154.36 280 0 280 C-0.33 273.4 -0.66 266.8 -1 260 C-3.53394349 253.12215337 -5.78320005 249.06483074 -12 245 C-12.56589844 244.62101563 -13.13179687 244.24203125 -13.71484375 243.8515625 C-21.59751586 239.44975352 -31.21747297 240.17868824 -40 240 C-40 235.71 -40 231.42 -40 227 C-37.49348958 226.86979167 -34.98697917 226.73958333 -32.48046875 226.609375 C-29.87156276 226.20022232 -29.87156276 226.20022232 -28.1640625 224.1171875 C-26.75998786 222.01730841 -26.75998786 222.01730841 -27.1875 219.375 C-27.85676551 216.84979635 -27.85676551 216.84979635 -30 215 C-32.43252661 214.53837573 -32.43252661 214.53837573 -35.125 214.375 C-37.538125 214.189375 -37.538125 214.189375 -40 214 C-40 209.38 -40 204.76 -40 200 C-36.04 199.67 -32.08 199.34 -28 199 C-27.95875 197.55625 -27.9175 196.1125 -27.875 194.625 C-27.85179688 193.81289063 -27.82859375 193.00078125 -27.8046875 192.1640625 C-27.78629949 189.78657757 -27.78629949 189.78657757 -30 188 C-32.43252661 187.53837573 -32.43252661 187.53837573 -35.125 187.375 C-37.538125 187.189375 -37.538125 187.189375 -40 187 C-40 182.71 -40 178.42 -40 174 C-37.339375 173.5978125 -37.339375 173.5978125 -34.625 173.1875 C-31.64691668 172.80092254 -31.64691668 172.80092254 -29 172 C-26.69212888 169.17537932 -26.69212888 169.17537932 -27.125 165.9375 C-27.70593681 163.00262179 -27.70593681 163.00262179 -29.5625 161.6875 C-33.02512846 160.7108612 -36.41923471 160.35807653 -40 160 C-40 155.71 -40 151.42 -40 147 C-37.49348958 146.86979167 -34.98697917 146.73958333 -32.48046875 146.609375 C-29.87156276 146.20022232 -29.87156276 146.20022232 -28.1640625 144.1171875 C-26.75998786 142.01730841 -26.75998786 142.01730841 -27.1875 139.375 C-27.85676551 136.84979635 -27.85676551 136.84979635 -30 135 C-32.43252661 134.53837573 -32.43252661 134.53837573 -35.125 134.375 C-37.538125 134.189375 -37.538125 134.189375 -40 134 C-40 129.38 -40 124.76 -40 120 C-34.06 119.505 -34.06 119.505 -28 119 C-27.95875 117.55625 -27.9175 116.1125 -27.875 114.625 C-27.85179688 113.81289062 -27.82859375 113.00078125 -27.8046875 112.1640625 C-27.78629949 109.78657757 -27.78629949 109.78657757 -30 108 C-32.43252661 107.53837573 -32.43252661 107.53837573 -35.125 107.375 C-37.538125 107.189375 -37.538125 107.189375 -40 107 C-40 102.71 -40 98.42 -40 94 C-37.339375 93.5978125 -37.339375 93.5978125 -34.625 93.1875 C-31.64691668 92.80092254 -31.64691668 92.80092254 -29 92 C-26.69212888 89.17537932 -26.69212888 89.17537932 -27.125 85.9375 C-27.70593681 83.00262179 -27.70593681 83.00262179 -29.5625 81.6875 C-33.02512846 80.7108612 -36.41923471 80.35807653 -40 80 C-40 75.71 -40 71.42 -40 67 C-36.24023438 66.8046875 -36.24023438 66.8046875 -32.48046875 66.609375 C-29.87156276 66.20022232 -29.87156276 66.20022232 -28.1640625 64.1171875 C-26.75998786 62.01730841 -26.75998786 62.01730841 -27.1875 59.375 C-27.85676551 56.84979635 -27.85676551 56.84979635 -30 55 C-32.43252661 54.53837573 -32.43252661 54.53837573 -35.125 54.375 C-37.538125 54.189375 -37.538125 54.189375 -40 54 C-40 49.38 -40 44.76 -40 40 C-38.66066406 39.97421875 -37.32132813 39.9484375 -35.94140625 39.921875 C-34.14840686 39.86555041 -32.35543936 39.8082041 -30.5625 39.75 C-29.24475586 39.72873047 -29.24475586 39.72873047 -27.90039062 39.70703125 C-20.36725708 39.42905584 -14.25153234 37.77497188 -8.44140625 32.81640625 C-7.82136719 32.07261719 -7.20132813 31.32882813 -6.5625 30.5625 C-5.60537109 29.45068359 -5.60537109 29.45068359 -4.62890625 28.31640625 C1.61366707 19.43907777 -0.56817739 11.93172515 0 0 Z M21.6875 47.25 C20.76517578 48.03117187 20.76517578 48.03117187 19.82421875 48.828125 C13.14824074 56.77639861 13.42563404 64.78780916 13.48242188 74.65234375 C13.4769954 76.23658897 13.46986979 77.82082913 13.46118164 79.40505981 C13.4430077 83.69023736 13.44999113 87.97502798 13.46269798 92.26021194 C13.4728565 96.75413268 13.4634244 101.24802126 13.45715332 105.74194336 C13.4498852 113.28733236 13.45944264 120.83256452 13.47851562 128.37792969 C13.50028279 137.08948429 13.49323083 145.80066436 13.47121 154.51220989 C13.45303215 162.0046111 13.45050932 169.49689985 13.46096468 176.98931599 C13.46718652 181.45858711 13.46807142 185.92768245 13.45481873 190.39694214 C13.44322602 194.59962283 13.45134792 198.80182275 13.47439575 203.00445175 C13.47966466 204.54269489 13.47820031 206.0809788 13.46934509 207.61920547 C13.42740217 215.64799444 13.50328117 222.09437184 18 229 C18.5775 229.886875 19.155 230.77375 19.75 231.6875 C24.05806979 236.11523839 29.54306786 239.84342311 35.84369481 240.12880117 C37.5980893 240.13148402 37.5980893 240.13148402 39.3879261 240.13422108 C40.36917477 240.13774942 40.36917477 240.13774942 41.37024665 240.14134905 C43.57758694 240.14804298 45.78486842 240.14758071 47.99221802 240.14717102 C49.5846916 240.15046941 51.17716436 240.15419492 52.76963603 240.1583125 C57.15789279 240.16834359 61.54613587 240.17205108 65.93440247 240.17470181 C70.66258833 240.1786016 75.39076332 240.18818019 80.11894226 240.19691467 C91.54386152 240.21668872 102.96878168 240.22674667 114.39371377 240.23564246 C119.772017 240.24002399 125.15031923 240.24539116 130.52862167 240.25063133 C148.40430815 240.26764486 166.279994 240.28213931 184.15568733 240.28938007 C188.79584885 240.29129001 193.43601037 240.29321034 198.07617188 240.29516602 C199.22948249 240.29564976 200.38279311 240.2961335 201.57105254 240.2966319 C220.25630709 240.30493319 238.94149765 240.33027125 257.62672426 240.36274669 C276.80430443 240.39580648 295.98185208 240.41382787 315.1594609 240.41702431 C325.92944867 240.41919045 336.69934312 240.42795431 347.46930313 240.45348549 C356.6411453 240.47517774 365.81287149 240.48325017 374.9847364 240.47351871 C379.66432864 240.46896969 384.34368153 240.47089521 389.02324104 240.49028015 C393.30930852 240.50788168 397.59496147 240.50693864 401.88103317 240.49138286 C403.42955063 240.4890022 404.97809656 240.49335412 406.52657045 240.50521151 C415.9307582 240.57274898 423.4663221 240.00024909 431.26953125 234.359375 C431.77871094 233.82828125 432.28789063 233.2971875 432.8125 232.75 C433.33457031 232.22921875 433.85664062 231.7084375 434.39453125 231.171875 C440.52273082 222.88165855 440.58050089 215.40745782 440.53344727 205.47119141 C440.54051303 203.90004163 440.54926081 202.32889866 440.55955505 200.75776672 C440.58198726 196.50759226 440.57912356 192.25779128 440.57023358 188.00758028 C440.56510939 184.45159124 440.57242799 180.89567151 440.57970566 177.33968961 C440.59668565 168.94612423 440.59315869 160.55274072 440.57641602 152.15917969 C440.55950164 143.51804249 440.57532398 134.87741072 440.6076389 126.23632872 C440.63438559 118.80079063 440.64159697 111.36540939 440.63312382 103.92982805 C440.62820874 99.49621193 440.63033269 95.06289969 440.65091133 90.62932205 C440.6693482 86.45774827 440.66321305 82.28689774 440.63871193 78.11536217 C440.633729 76.59085508 440.63712793 75.06629212 440.64986038 73.54183006 C440.72392926 63.90576713 440.01760484 55.75986935 433.44289494 48.21254921 C424.62525582 39.94361549 414.93603979 39.41888722 403.40014648 39.49206543 C401.81486406 39.48745213 400.22958592 39.48109634 398.64431667 39.47315645 C394.30370474 39.45649882 389.96344577 39.46469319 385.62283278 39.47710133 C380.93563445 39.48616413 376.24849615 39.47217599 371.56130981 39.46118164 C362.3852842 39.44340498 353.20938954 39.44723262 344.03335881 39.4588322 C336.57511525 39.4678696 329.11690836 39.4690892 321.65866089 39.46473694 C320.06577969 39.46381754 320.06577969 39.46381754 318.44071907 39.46287957 C316.28337644 39.46160065 314.12603383 39.4603038 311.96869123 39.4589892 C291.7442721 39.4475859 271.51992551 39.4606932 251.29551828 39.48219067 C233.94599929 39.50006141 216.59658737 39.49695723 199.24707031 39.47851562 C179.09450169 39.45710452 158.94199663 39.44868452 138.78941822 39.46096468 C136.64005853 39.46223886 134.49069882 39.46349635 132.34133911 39.46473694 C131.28384207 39.46535404 130.22634502 39.46597114 129.13680261 39.46660694 C121.68842538 39.47005912 114.24008851 39.46423435 106.79171753 39.45481873 C97.7133249 39.44359472 88.6350706 39.4466473 79.55669379 39.4679417 C74.9256795 39.47844665 70.29489575 39.48258337 65.66388321 39.46934509 C61.42244079 39.45740391 57.18144207 39.46401207 52.94003975 39.4852553 C51.40786175 39.48971406 49.87564606 39.4874714 48.34349239 39.47775215 C38.14055138 39.41800721 29.62037874 40.25140034 21.6875 47.25 Z " fill="#F7D3C0" transform="translate(93,79)"/>
<path d="M0 0 C1.58314584 -0.00604697 3.16628584 -0.01382792 4.74941558 -0.02318513 C9.08421985 -0.04371253 13.41869269 -0.03939007 17.75352395 -0.03082395 C22.43465672 -0.02588346 27.11571032 -0.04392523 31.79681396 -0.05889893 C40.96180187 -0.08438093 50.12667255 -0.08798179 59.29168991 -0.0832984 C66.74275901 -0.07973026 74.19379256 -0.08323516 81.64485741 -0.09174728 C82.70591204 -0.09293766 83.76696667 -0.09412804 84.86017447 -0.09535449 C87.0158199 -0.09777803 89.17146532 -0.1002063 91.32711073 -0.10263924 C111.53730683 -0.12438589 131.74743617 -0.12006743 151.95763602 -0.10786955 C170.43684041 -0.09753267 188.91583389 -0.12003887 207.39499656 -0.15806599 C226.37956773 -0.19683297 245.36403915 -0.21333294 264.34865016 -0.20581949 C275.00297943 -0.20199679 285.65712922 -0.2069573 296.31142616 -0.23524857 C305.38209139 -0.25909131 314.45246667 -0.2618694 323.52313594 -0.23766823 C328.14855724 -0.2259008 332.77344842 -0.22366235 337.39883423 -0.24767303 C341.63876085 -0.26942644 345.87771592 -0.26314456 350.11759742 -0.23514967 C351.64579516 -0.22986527 353.17406947 -0.23455933 354.70219193 -0.25062139 C365.19478716 -0.35319467 374.34684081 1.0766875 382.44978458 8.34073484 C387.63934519 13.81839888 389.79252353 19.96015282 389.80801392 27.42152405 C389.81609222 28.40820661 389.81609222 28.40820661 389.82433373 29.41482216 C389.83854044 31.59954813 389.83152815 33.78366192 389.8243866 35.96841431 C389.830094 37.54265832 389.8370597 39.1168982 389.84518433 40.69113159 C389.86308985 44.95357493 389.8619523 49.21581212 389.85624194 53.47828174 C389.85314635 57.04185462 389.85924665 60.60538812 389.86528069 64.16895539 C389.8793157 72.57821606 389.87777312 80.98737512 389.86637878 89.39663696 C389.85489794 98.06101252 389.86897494 106.72507853 389.89577526 115.3894133 C389.9179531 122.83932146 389.92456496 130.28913261 389.91869885 137.73907143 C389.91533312 142.18377826 389.91771874 146.62828667 389.93494987 151.07296562 C389.95045028 155.25345311 389.94642943 159.43348303 389.92764473 163.61395264 C389.92396741 165.14413937 389.9270423 166.67436025 389.93753052 168.20451546 C389.99630154 177.49097842 389.48232758 184.02633563 383.81486511 191.69326782 C383.2927948 192.21404907 382.77072449 192.73483032 382.23283386 193.27139282 C381.72365417 193.80248657 381.21447449 194.33358032 380.68986511 194.88076782 C372.22902499 200.99703779 363.78745275 201.09278177 353.69985962 201.02932739 C352.10149015 201.03394059 350.50312493 201.04029632 348.90476853 201.04823637 C344.52802224 201.06489518 340.15162597 201.05669911 335.77487862 201.0442915 C331.04884444 201.03522926 326.32286982 201.04921651 321.59684753 201.06021118 C312.34495685 201.07798803 303.09319605 201.07416024 293.8413003 201.06256062 C286.3220261 201.05352384 278.80278828 201.05230336 271.28351021 201.05665588 C270.2129746 201.05726882 269.14243899 201.05788175 268.03946291 201.05851325 C265.86464356 201.05979216 263.68982421 201.06108902 261.51500488 201.06240362 C241.12704197 201.07380683 220.73915104 201.06069947 200.35119993 201.03920215 C182.85866493 201.02132886 165.3662361 201.02443771 147.873703 201.0428772 C127.55670504 201.06428404 107.23977012 201.07271092 86.92276245 201.06042814 C84.7562889 201.05915395 82.58981533 201.05789647 80.42334175 201.05665588 C79.35741166 201.05603878 78.29148158 201.05542168 77.19325058 201.05478588 C69.68278802 201.05133262 62.17236547 201.05716076 54.6619091 201.0665741 C45.50956072 201.07779326 36.35734957 201.07475561 27.2050169 201.05345112 C22.53564705 201.04294004 17.86650598 201.03881994 13.19713783 201.05204773 C8.92182441 201.06397604 4.64695163 201.05740193 0.37167812 201.03613752 C-1.17394098 201.03167335 -2.71959739 201.03393362 -4.26519246 201.04364067 C-14.8965298 201.10528309 -22.51963678 200.13364277 -30.57966614 192.52139282 C-34.94827746 186.6549719 -36.82493684 182.14915225 -36.8538208 174.83053589 C-36.85905748 174.17107837 -36.86429416 173.51162086 -36.86968952 172.83217978 C-36.88465068 170.62988936 -36.88539381 168.42783207 -36.88606262 166.22549438 C-36.89368681 164.64331675 -36.90211476 163.06114282 -36.9112854 161.47897339 C-36.93321361 157.1854065 -36.94202721 152.89191082 -36.94711185 148.59829426 C-36.95075786 145.91351035 -36.95699925 143.22874502 -36.96411324 140.5439682 C-36.98860337 131.17087486 -37.00165837 121.79783682 -37.00520325 112.42471313 C-37.00883662 103.69901472 -37.03871882 94.97366846 -37.08060783 86.24807763 C-37.11534584 78.74809833 -37.13075231 71.24823552 -37.13144928 63.74817634 C-37.132241 59.2725957 -37.14093077 54.79737377 -37.16944695 50.32187653 C-37.19568748 46.10935736 -37.1977998 41.89749273 -37.18179131 37.68492889 C-37.17998146 36.14386056 -37.18662553 34.60275407 -37.20261002 33.06176758 C-37.29577007 23.49283506 -36.66085994 16.13598543 -30.0224371 8.80069351 C-21.18459718 0.49001237 -11.59213793 -0.06283037 0 0 Z M-21.57966614 19.52139282 C-23.92551702 22.83557135 -23.83305964 25.8093364 -23.84036255 29.80847168 C-23.84744736 31.1010791 -23.85453217 32.39368652 -23.86183167 33.72546387 C-23.85953788 35.15597569 -23.85702819 36.58648718 -23.85432434 38.01699829 C-23.85867206 39.52507785 -23.86385541 41.03315519 -23.86981201 42.54122925 C-23.88320788 46.63633084 -23.88377996 50.73134017 -23.88124871 54.82645941 C-23.88017925 58.2459138 -23.88506181 61.6653495 -23.88985413 65.08479989 C-23.90095167 73.15303387 -23.90138555 81.2212213 -23.89533997 89.28945923 C-23.88930104 97.61009868 -23.90160851 105.93056899 -23.92291003 114.25117958 C-23.94053055 121.39695338 -23.94652663 128.54267337 -23.94327229 135.6884681 C-23.94145977 139.95539263 -23.94409234 144.22219656 -23.95798683 148.48910141 C-23.97056766 152.50285606 -23.96861876 156.51634733 -23.95557594 160.53009796 C-23.95321104 162.00145939 -23.95594181 163.47283937 -23.96419907 164.94417953 C-23.97467457 166.95621092 -23.96475875 168.9683174 -23.95388794 170.98034668 C-23.95405568 172.1052696 -23.95422342 173.23019253 -23.95439625 174.38920403 C-23.34835077 179.45484672 -21.8945919 182.47579524 -17.88074994 185.66750658 C-14.17930638 187.74623457 -12.11985687 188.02238318 -7.91071415 188.02475739 C-7.26261789 188.03057115 -6.61452162 188.03638491 -5.94678608 188.04237485 C-3.77781284 188.05695842 -1.60997425 188.04309873 0.55899048 188.02932739 C2.13073478 188.033937 3.70247477 188.04029033 5.27420574 188.04823637 C9.5912523 188.06494487 13.90794547 188.05667646 18.22499335 188.0442915 C22.88153144 188.03524946 27.53800833 188.04920658 32.1945343 188.06021118 C41.31615736 188.07801045 50.43764887 188.07415002 59.55927711 188.06256062 C66.97231982 188.05353156 74.38532564 188.05230002 81.79837227 188.05665588 C82.8529509 188.05726882 83.90752953 188.05788175 84.99406509 188.05851325 C87.13635278 188.05979214 89.27864046 188.06108899 91.42092813 188.06240362 C111.51603556 188.07381369 131.61107003 188.0606893 151.7061655 188.03920215 C168.95117549 188.02133339 186.19607777 188.02443264 203.44108582 188.0428772 C223.46213542 188.06428084 243.48312104 188.07271227 263.50418049 188.06042814 C265.63894688 188.05915393 267.77371328 188.05789645 269.90847969 188.05665588 C270.95885079 188.05603878 272.00922189 188.05542168 273.09142242 188.05478588 C280.49562004 188.05133127 287.89977709 188.05716378 295.30396843 188.0665741 C304.32722862 188.07778993 313.35034962 188.07476285 322.37359386 188.05345112 C326.97801154 188.04293474 331.58219709 188.03882886 336.18661308 188.05204773 C340.40154918 188.06396544 344.61603795 188.05741945 348.83093346 188.03613752 C350.35576313 188.03166878 351.88063058 188.03394389 353.40543597 188.04364067 C364.17753463 188.33782922 364.17753463 188.33782922 373.42033386 183.52139282 C376.24017479 179.33117985 376.79813739 175.99297166 376.81474304 171.00053406 C376.83176773 169.05966667 376.83176773 169.05966667 376.84913635 167.07958984 C376.84649339 165.65792784 376.84352223 164.23626642 376.84025574 162.81460571 C376.84760025 161.30784985 376.8561876 159.80109962 376.86592102 158.2943573 C376.88810435 154.21167817 376.89106935 150.12920105 376.88917351 146.04646993 C376.88905367 142.63445483 376.89762304 139.22248233 376.90595102 135.8104791 C376.92517322 127.75941678 376.92807306 119.70845813 376.92131042 111.65737915 C376.9146685 103.35932719 376.93754258 95.0617196 376.97462416 86.76375777 C377.00533673 79.63150095 377.01667957 72.49938698 377.01278734 65.36706537 C377.01072164 61.11066859 377.01617135 56.85461776 377.04067993 52.59828377 C377.06297087 48.59501924 377.0610504 44.59247667 377.04075241 40.5892086 C377.03734658 39.12309837 377.04241322 37.65693931 377.05673599 36.19089508 C377.34408805 27.29738072 377.34408805 27.29738072 374.19438171 19.21913147 C369.70660744 14.85480801 366.00643492 14.27171687 359.85601902 14.2613306 C359.20708863 14.25752493 358.55815824 14.25371926 357.88956329 14.24979827 C355.71204082 14.23948034 353.53477892 14.24338894 351.35723877 14.24723816 C349.78152332 14.24278588 348.20581011 14.23747187 346.63010019 14.23136944 C342.29756219 14.2171782 337.96509588 14.21552635 333.63253796 14.21596634 C328.96101401 14.21431917 324.28951969 14.2012547 319.61801147 14.18977356 C309.40335485 14.16691877 299.188719 14.15900277 288.97404027 14.15394711 C282.59804108 14.15069135 276.22204794 14.14416969 269.84605217 14.13694572 C252.19760488 14.11738096 234.54916321 14.10097543 216.90070438 14.09806919 C215.77126186 14.09788162 214.64181934 14.09769405 213.47815129 14.0975008 C211.18845046 14.09713454 208.89874962 14.09677085 206.60904879 14.09640969 C205.47241984 14.09622687 204.33579088 14.09604406 203.16471863 14.09585571 C202.02670516 14.09567516 200.88869168 14.09549461 199.71619295 14.09530859 C181.26504538 14.09176487 162.81401437 14.06472957 144.36290724 14.02735782 C125.4259659 13.98930839 106.48908246 13.96991197 87.55210203 13.96960968 C76.91691988 13.96902443 66.28187684 13.96048879 55.64673042 13.93161201 C46.59340365 13.90714337 37.54026676 13.89978478 28.48691589 13.91485954 C23.86636588 13.92204639 19.24619117 13.92109478 14.62568283 13.89844894 C10.39712769 13.87792224 6.16923788 13.88039965 1.94069045 13.90132379 C0.40978276 13.90483079 -1.12117233 13.89985759 -2.65201782 13.88561935 C-13.36161405 13.50485878 -13.36161405 13.50485878 -21.57966614 19.52139282 Z " fill="#403A39" transform="translate(143.5796661376953,118.47860717773438)"/>
<path d="M0 0 C15.84 0 31.68 0 48 0 C48 2.64 48 5.28 48 8 C35.13 8 22.26 8 9 8 C9 14.6 9 21.2 9 28 C21.21 28 33.42 28 46 28 C46 30.64 46 33.28 46 36 C33.79 36 21.58 36 9 36 C9 43.59 9 51.18 9 59 C22.53 59 36.06 59 50 59 C50 61.64 50 64.28 50 67 C33.5 67 17 67 0 67 C0 44.89 0 22.78 0 0 Z " fill="#433C3B" transform="translate(376,186)"/>
<path d="M0 0 C2.97 0 5.94 0 9 0 C9.33 10.23 9.66 20.46 10 31 C12.09859375 28.7621875 14.1971875 26.524375 16.359375 24.21875 C18.42735277 22.05701706 20.50576695 19.90583901 22.58544922 17.75537109 C24.01822236 16.2624816 25.4400146 14.75896827 26.85009766 13.24462891 C38.62398999 0.62321574 38.62398999 0.62321574 44.69335938 -0.96875 C47.64371529 -0.96875 50.15507947 -0.75485766 53 0 C48.86224387 4.93250807 44.56631727 9.58859311 40 14.125 C39.40960938 14.71925781 38.81921875 15.31351563 38.2109375 15.92578125 C34.62639093 19.50243235 30.93901813 22.81756157 27 26 C28.44020131 30.22818461 30.53321658 33.20770979 33.3125 36.6875 C37.65238235 42.19928904 41.83006237 47.812912 45.9375 53.5 C46.49284424 54.26530029 47.04818848 55.03060059 47.62036133 55.8190918 C48.14654053 56.549104 48.67271973 57.27911621 49.21484375 58.03125 C49.68011475 58.67642578 50.14538574 59.32160156 50.62475586 59.98632812 C52.18372341 62.26901309 53.5977667 64.61844966 55 67 C50.87067985 67.56221988 47.11433287 67.74823598 43 67 C39.73412272 64.47908862 37.8893349 61.3387729 35.8125 57.8125 C35.23226074 56.90661133 34.65202148 56.00072266 34.05419922 55.06738281 C32.88928423 53.24782887 31.73985536 51.41825774 30.60693359 49.57861328 C28.40470067 46.04473541 26.02836906 42.64860973 23.625 39.25 C22.41609972 37.5003916 21.20750914 35.7505688 20 34 C18.8944811 34.93590504 17.79064547 35.87379858 16.6875 36.8125 C15.76517578 37.59560547 15.76517578 37.59560547 14.82421875 38.39453125 C14.22222656 38.92433594 13.62023437 39.45414063 13 40 C12.47792969 40.41378906 11.95585937 40.82757813 11.41796875 41.25390625 C9.4429339 43.68597396 9.57046704 45.43634577 9.48828125 48.54296875 C9.45283203 49.61611328 9.41738281 50.68925781 9.38085938 51.79492188 C9.34702148 53.47424805 9.34702148 53.47424805 9.3125 55.1875 C9.27833984 56.31865234 9.24417969 57.44980469 9.20898438 58.61523438 C9.12643686 61.4100574 9.05730818 64.20456398 9 67 C6.03 67 3.06 67 0 67 C0 44.89 0 22.78 0 0 Z " fill="#433C3C" transform="translate(311,186)"/>
<path d="M0 0 C5.79426406 3.4550257 10.60191285 7.88047463 12.375 14.5 C12.395625 15.325 12.41625 16.15 12.4375 17 C9.34940305 18.76462683 8.20437864 19 4.4375 19 C3.1640625 17.390625 3.1640625 17.390625 2.0625 15.25 C-0.77515524 10.30161972 -4.124712 7.812596 -9.5625 6 C-16.08800469 5.21488011 -21.16204745 6.19486713 -26.5625 10 C-33.18981891 16.48004516 -34.85856455 22.89488868 -35 31.875 C-34.94665593 40.12332756 -33.40597711 46.48306779 -28.1875 52.9375 C-21.55208583 58.1510397 -15.86699118 58.98093319 -7.5625 58 C-3.27340422 56.7155649 -0.54313385 54.3816102 1.75 50.5625 C3.09054154 47.73246786 4.3677484 44.9418169 5.4375 42 C8.4075 42.66 11.3775 43.32 14.4375 44 C11.81773413 52.96235691 8.87245374 59.26916803 0.53125 64 C-7.43877486 67.80657904 -16.75862568 68.30922869 -25.25 65.9375 C-34.19319923 62.4560403 -38.44885115 56.22760887 -42.43359375 47.76953125 C-46.20348394 38.52090791 -46.03778602 25.52809476 -42.59375 16.13671875 C-38.5653975 7.79009444 -32.47621163 2.92668382 -24.265625 -1.13671875 C-16.8536266 -3.50384541 -7.0946763 -3.24172133 0 0 Z " fill="#443D3C" transform="translate(283.5625,187)"/>
<path d="M0 0 C17.49 0 34.98 0 53 0 C53 2.64 53 5.28 53 8 C45.74 8 38.48 8 31 8 C31 27.47 31 46.94 31 67 C28.03 67 25.06 67 22 67 C22 47.53 22 28.06 22 8 C14.74 8 7.48 8 0 8 C0 5.36 0 2.72 0 0 Z " fill="#453E3D" transform="translate(435,186)"/>
<path d="M0 0 C17.49 0 34.98 0 53 0 C53 2.64 53 5.28 53 8 C45.74 8 38.48 8 31 8 C31 27.47 31 46.94 31 67 C28.03 67 25.06 67 22 67 C22 47.53 22 28.06 22 8 C14.74 8 7.48 8 0 8 C0 5.36 0 2.72 0 0 Z " fill="#433C3B" transform="translate(152,186)"/>
<path d="M0 0 C2.97 0 5.94 0 9 0 C9 22.11 9 44.22 9 67 C6.03 67 3.06 67 0 67 C0 44.89 0 22.78 0 0 Z " fill="#47403F" transform="translate(215,186)"/>
</svg>
